<?xml version="1.0" encoding="utf-8"?>
<!-- Generator: Adobe Illustrator 27.5.0, SVG Export Plug-In . SVG Version: 6.00 Build 0)  -->
<svg version="1.1" id="Capa_1" xmlns="http://www.w3.org/2000/svg" xmlns:xlink="http://www.w3.org/1999/xlink" x="0px" y="0px"
	 viewBox="0 0 2122 2122" style="enable-background:new 0 0 2122 2122;" xml:space="preserve">
<path style="fill:#DFEBE9;" d="M1079.195,288.609c7.438-3.545,31.524,31.422,54.409,78.664
	c21.89,15.369,42.927,31.989,63.011,49.773l160.338,5.875c0.724-0.328,1.446-0.665,2.173-0.987
	c25.297-11.191,56.672-17.23,79.23-1.22c3.534,2.508,6.634,5.514,9.574,8.7c24.585,6.896,46.099,21.978,60.527,42.592
	c16.94,0.385,35.099-3.95,52.321-3.761c32.51,0.357,64.209,19.034,80.276,47.298c6.442-38.098-15.74-79.184-51.125-94.701
	c-19.353-8.485-42.649-10.54-57.148-25.911c-15.854-16.811-15.301-43.502-27.813-62.93c-10.259-15.928-28.583-25.377-47.264-28.532
	c-18.683-3.156-38.826-4.047-56.453,2.899c-103.296,40.701-196.949-23.4-239.264-27.448c-47.781-4.571-82.231-4.07-106.33-1.301
	c6.459,6.694,14.955,18.841,24.215,34.627C1076.427,298.927,1075.928,290.166,1079.195,288.609z"/>
<path style="fill:#DFEBE9;" d="M414.723,575.297c36.896-1.214,72.315,24.909,108.398,17.11
	c26.538-5.736,46.017-28.749,58.219-53.003c12.202-24.254,19.258-50.947,32.713-74.529c13.455-23.582,35.793-44.74,62.901-46.252
	c18.502-1.033,36.38,7.179,54.902,7.743c12.638,0.386,25.281-3.077,36.171-9.489c0.488-3.347,0.996-6.581,1.53-9.638
	c-1.769-0.694-3.523-1.421-5.198-2.312c-17.4-9.265-30.229-25.385-38.441-42.743c-11.712-4.212-23.031-9.883-34.668-14.414
	c-36.749-14.308-82.667-15.298-111.539,11.566c-32.958,30.667-34.856,88.456-74.027,110.642
	c-29.172,16.524-66.472,5.48-98.591,15.091c-29.141,8.72-51.259,34.354-61.032,63.159c-9.772,28.805-8.488,60.371-2.183,90.127
	C348.972,604.428,380.435,576.424,414.723,575.297z"/>
<path d="M1149.785,1792.334c-0.43,1.746-2.398,3.313-4.573,2.419l-14.423,27.578l68.215,28.948
	c-13.378,1.06-25.207,7.666-31.251,19.013c-10.189,19.127-0.14,44.397,22.423,56.731l55.898-106.882
	c-24.99-6.507-50.366-13.361-76.494-20.731C1162.74,1797.48,1156.14,1795.098,1149.785,1792.334z"/>
<path d="M1735.424,1855.437c-12.691,4.364-22.497,13.713-25.517,26.21c-5.095,21.065,10.942,43.027,35.869,49.342l36.611-156.588
	l-98.207-24.225l-22.036,94.25L1735.424,1855.437z"/>
<path style="fill:#FDCC7E;" d="M1155.515,1152.196c-92.684,12.651-173.167,14.727-207.558,6.797
	c-1.127,0.839-2.28,1.614-3.397,2.477c-198.704,153.561-288.95,237.749-313.539,261.57c-11.961,8.697-22.006,20.439-28.677,34.951
	l0,0c-33.208,72.238-6.023,157.85,62.691,197.845c148.695,86.545,274.84,147.827,438.313,218.964l27.439-52.467l14.423-27.578
	l-0.093-0.021c-32.047-14.205-59.033-39.298-75.057-70.542c-17.14-33.422-19.555-70.976-16.943-107.84
	c0.044-0.627,0.27-1.12,0.56-1.551l-168.973-102.417l177.189-124.123c-0.341-0.473-0.578-1.046-0.53-1.814
	c0.414-6.567,0.828-13.133,1.24-19.7c2.863-45.467,5.727-90.934,8.59-136.401c0.251-3.993,6.488-4.008,6.236,0
	c-0.414,6.566-0.827,13.134-1.24,19.701c-2.864,45.467-5.726,90.933-8.59,136.4c-0.125,1.985-1.729,2.982-3.28,2.995
	c-6.102,107.263-7.393,180.036-7.286,224.008c1.318,0.224,2.442,1.159,2.318,2.901c-2.531,35.705-0.53,72.281,16.092,104.693
	c15.597,30.413,41.637,54.483,72.818,68.304c1.436,0.637,1.8,1.844,1.519,2.986c6.355,2.763,12.955,5.146,19.795,7.075
	c26.128,7.37,51.505,14.225,76.494,20.731c133.378,34.729,254.318,58.275,402.591,81.939l13.48-57.654l22.036-94.25l9.332-39.913
	l-406.784-122.596l59.501-479.248C1310.002,1123.943,1238.619,1140.852,1155.515,1152.196z"/>
<path style="fill:#86B4E1;" d="M1025.814,1010.162c-47.779-14.738-89.526-45.861-137.968-56.182
	c17.789,103.641,42.481,195.152,42.481,195.152l0.057-0.008c1.062,4.187,7.222,7.482,17.574,9.868
	c34.391,7.93,114.873,5.854,207.558-6.797c83.103-11.344,154.486-28.252,190.714-43.778c16.907-7.246,26.183-14.191,25.373-20.127
	c-8.374-62.321-21.947-123.165-37.102-178.38c-13.624,11.063-26.849,22.708-40.487,33.505
	C1221.049,1001.183,1118.233,1038.669,1025.814,1010.162z"/>
<path style="fill:#EB806E;" d="M704.348,793.066c18.336,13.056,35.301,27.901,53.657,40.845c0.124-13.038,1.12-27.908,3.082-43.631
	c3.261-26.122,8.529-49.272,14.292-65.215c-18.743-2.114-38.487-4.462-61.087-7.518c-7.43-1.005-10.002-10.419-4.143-15.097
	l138.289-101.179l-0.793-0.942c-7.681-14.127-13.835-29.042-19.034-44.245c-9.941-29.065-16.65-59.292-21.011-89.677
	c-2.632-18.341-4.76-37.11-4.687-55.757c-12.126,1.339-23.455,0.477-33.359-3.411c-0.534,3.058-1.042,6.292-1.53,9.638
	c-2.185,14.954-3.902,32.565-4.835,51.535c-1.276,25.935-0.862,49.532,0.823,67.232L581.678,645.808
	c-40.239,25.018-61.214,73.144-49.387,119.026c1.781,6.909,4.277,13.658,7.427,20.155c22.876-6.928,44.69-19.947,68.843-23.115
	C642.948,757.364,676.855,773.489,704.348,793.066z"/>
<path style="fill:#86B4E1;" d="M1267.932,577.751c-4.47,3.309-60.722,37.474-102.61,81.809c-9.226,1.155-19.047,2.618-29.325,4.358
	c2.879,23.447,4.287,39.229,4.586,41.897c1.523,13.554-34.914,28.777-81.385,34c-46.471,5.224-85.379-1.53-86.902-15.084
	c-0.183-1.623-0.567-8.062-1.02-18.078c-17.368,6.118-33.107,12.312-46.72,18.359c-59.198-19.232-127.885-21.472-133.53-22.176
	c-4.894-0.611-10.469,7.909-15.645,22.23c-5.763,15.943-11.031,39.093-14.292,65.215c-1.963,15.724-2.958,30.593-3.082,43.631
	c9.168,6.464,18.656,12.49,28.89,17.513c57.655,28.295,129.48,21.433,189.135-2.113c59.654-23.546,110.274-61.898,162.17-97.366
	c51.898-35.469,107.719-69.217,171.56-81.081c14.98-2.783,30.667-4.094,46.189-3.611c-5.512-8.928-11.896-18.385-19.017-28.005
	c-15.662-21.158-31.614-38.742-44.459-49.805C1280.935,579.504,1271.896,574.817,1267.932,577.751z"/>
<path style="fill:#EB806E;" d="M817.889,490.22c7.046,36.714,17.197,73.955,35.142,106.962c1.06,1.948-0.121,3.735-1.7,4.392
	c22.577,28.81,57.678,40.308,117.309,31.87c0.144-1.446,1.098-2.876,2.927-3.053c24.821-2.403,49.129-8.614,72.129-18.234
	c3.704-1.55,5.306,4.488,1.658,6.014c-23.546,9.849-48.389,15.997-73.787,18.456c-1.209,0.117-2.003-0.403-2.478-1.152
	c0.553,29.857,1.46,55.14,2.186,71.18c0.454,10.016,0.837,16.455,1.02,18.078c1.523,13.554,40.431,20.308,86.902,15.084
	c46.472-5.224,82.909-20.446,81.385-34c-0.3-2.668-1.707-18.45-4.586-41.897c-4.673-38.074-13.238-96.414-27.313-152.058
	c0.047-0.745,0.072-1.511,0.112-2.263l-1.263-0.319c-40.855-19.477-60.951-62.139-77.767-101.631l-0.158-0.752
	c-30.227-7.659-62.467-29.049-59.424-86.04c0,0-91.402,77.344-161.064,88.961C808.784,436.721,812.869,464.069,817.889,490.22z
	 M969.681,536.005c-12.893,4.839-22.742,16.375-25.886,29.716c-0.922,3.911-6.934,2.245-6.014-1.658
	c3.669-15.566,15.328-28.474,30.242-34.072c1.585-0.595,3.42,0.666,3.836,2.178C972.334,533.898,971.256,535.413,969.681,536.005z
	 M946.016,471.44c0.762,2.975,1.739,5.973,3.148,8.709c1.11,2.155,2.683,4.533,5.229,5.065c4.916,1.028,7.138-7.112,8.11-10.486
	c1.752-6.074,2.17-12.529,1.128-18.771c-0.279-1.667,0.415-3.351,2.177-3.836c1.504-0.413,3.558,0.515,3.836,2.178
	c1.162,6.95,0.974,14.003-0.786,20.842c-1.338,5.196-3.419,11.23-7.924,14.525c-4.714,3.448-11.029,1.691-14.6-2.544
	c-3.801-4.506-5.746-10.849-6.907-16.536c-1.219-5.969-1.486-12.082-0.709-18.124c0.216-1.679,1.255-3.118,3.118-3.118
	c1.532,0,3.333,1.444,3.118,3.118C944.136,458.814,944.424,465.229,946.016,471.44z M1019.276,477.791
	c16.333,6.203,24.545,24.472,18.343,40.805c-6.203,16.333-24.472,24.545-40.805,18.342c-16.333-6.202-24.546-24.471-18.343-40.804
	C984.674,479.801,1002.943,471.589,1019.276,477.791z M932.635,415.738c11.378,14.036,30.036,19.141,46.991,12.824
	c3.772-1.405,5.386,4.625,1.658,6.014c-18.804,7.005-40.422,1.163-53.059-14.428C925.719,417.056,930.108,412.62,932.635,415.738z
	 M900.621,483.081c1.499-7.898,2.999-15.797,4.499-23.696c0.748-3.944,6.758-2.264,6.013,1.658
	c-2.608,13.737-5.425,27.455-7.817,41.231c-1.147,6.607-0.544,12.329,4.433,17.143c3.704,3.584,8.433,5.977,13.001,8.26
	c3.595,1.795,0.432,7.173-3.148,5.384c-10.796-5.393-21.831-12.793-21.089-26.335C896.947,498.821,899.147,490.846,900.621,483.081z
	 M882.964,542.933c-5.337,14.053-21.056,21.118-35.108,15.781c-14.053-5.337-21.118-21.055-15.782-35.108
	c5.337-14.053,21.055-21.118,35.109-15.781C881.235,513.161,888.301,528.88,882.964,542.933z M871.491,458.449
	c1.503-0.414,3.559,0.516,3.836,2.178c1.161,6.95,0.973,14.002-0.787,20.843c-1.337,5.195-3.419,11.23-7.924,14.526
	c-4.714,3.448-11.028,1.689-14.601-2.544c-3.801-4.506-5.745-10.849-6.907-16.536c-1.219-5.969-1.485-12.083-0.71-18.125
	c0.216-1.678,1.255-3.118,3.118-3.118c1.531,0,3.333,1.445,3.118,3.118c-0.816,6.351-0.527,12.766,1.065,18.977
	c0.762,2.975,1.739,5.972,3.147,8.709c1.109,2.156,2.683,4.533,5.229,5.066c4.915,1.028,7.137-7.113,8.11-10.486
	c1.752-6.074,2.169-12.529,1.127-18.771C869.035,460.618,869.729,458.933,871.491,458.449z M860.343,423.201
	c1.724-3.626,7.099-0.458,5.385,3.148c-7.965,16.761-26.2,26.845-44.644,24.599c-1.665-0.203-3.138-1.265-3.118-3.118
	c0.016-1.538,1.432-3.324,3.118-3.118C837.574,446.72,853.211,438.207,860.343,423.201z"/>
<path style="fill:#A51F1E;" d="M917.603,533.062c3.58,1.788,6.742-3.589,3.148-5.384c-4.568-2.283-9.297-4.676-13.001-8.26
	c-4.977-4.814-5.581-10.536-4.433-17.143c2.392-13.776,5.208-27.494,7.817-41.231c0.745-3.922-5.265-5.602-6.013-1.658
	c-1.5,7.899-2.999,15.798-4.499,23.696c-1.474,7.764-3.673,15.739-4.106,23.645C895.772,520.268,906.807,527.669,917.603,533.062z"
	/>
<path style="fill:#A51F1E;" d="M981.285,434.576c3.728-1.389,2.114-7.419-1.658-6.014c-16.955,6.317-35.613,1.212-46.991-12.824
	c-2.527-3.118-6.916,1.318-4.409,4.41C940.863,435.739,962.481,441.581,981.285,434.576z"/>
<path style="fill:#A51F1E;" d="M821.084,444.711c-1.686-0.206-3.102,1.58-3.118,3.118c-0.019,1.853,1.453,2.915,3.118,3.118
	c18.444,2.247,36.678-7.838,44.644-24.599c1.714-3.607-3.661-6.775-5.385-3.148C853.211,438.207,837.574,446.72,821.084,444.711z"/>
<path style="fill:#A51F1E;" d="M941.834,449.345c-1.863,0-2.902,1.439-3.118,3.118c-0.777,6.042-0.509,12.155,0.709,18.124
	c1.161,5.687,3.107,12.03,6.907,16.536c3.572,4.235,9.887,5.992,14.6,2.544c4.505-3.295,6.586-9.329,7.924-14.525
	c1.76-6.839,1.948-13.892,0.786-20.842c-0.277-1.663-2.332-2.591-3.836-2.178c-1.763,0.485-2.456,2.168-2.177,3.836
	c1.042,6.242,0.625,12.697-1.128,18.771c-0.972,3.373-3.194,11.513-8.11,10.486c-2.546-0.532-4.119-2.91-5.229-5.065
	c-1.408-2.736-2.385-5.734-3.148-8.709c-1.591-6.211-1.88-12.626-1.064-18.976C945.167,450.79,943.365,449.345,941.834,449.345z"/>
<path style="fill:#A51F1E;" d="M869.313,462.285c1.042,6.242,0.625,12.697-1.127,18.771c-0.973,3.373-3.195,11.514-8.11,10.486
	c-2.546-0.533-4.12-2.91-5.229-5.066c-1.408-2.737-2.385-5.734-3.147-8.709c-1.592-6.21-1.881-12.626-1.065-18.977
	c0.215-1.673-1.587-3.118-3.118-3.118c-1.863,0-2.903,1.44-3.118,3.118c-0.776,6.042-0.509,12.156,0.71,18.125
	c1.161,5.687,3.106,12.03,6.907,16.536c3.573,4.234,9.887,5.992,14.601,2.544c4.505-3.296,6.586-9.331,7.924-14.526
	c1.761-6.84,1.948-13.892,0.787-20.843c-0.277-1.662-2.332-2.591-3.836-2.178C869.729,458.933,869.035,460.618,869.313,462.285z"/>
<path style="fill:#A51F1E;" d="M968.023,529.991c-14.914,5.598-26.573,18.506-30.242,34.072c-0.92,3.903,5.092,5.569,6.014,1.658
	c3.144-13.342,12.993-24.877,25.886-29.716c1.575-0.592,2.652-2.107,2.177-3.836C971.443,530.657,969.608,529.396,968.023,529.991z"
	/>
<path style="fill:#ED9E94;" d="M978.471,496.134c-6.203,16.333,2.009,34.602,18.343,40.804c16.333,6.203,34.601-2.009,40.805-18.342
	c6.202-16.333-2.01-34.601-18.343-40.805C1002.943,471.589,984.674,479.801,978.471,496.134z"/>
<path style="fill:#ED9E94;" d="M867.183,507.824c-14.054-5.337-29.772,1.729-35.109,15.781
	c-5.337,14.054,1.729,29.772,15.782,35.108c14.053,5.337,29.772-1.729,35.108-15.781
	C888.301,528.88,881.235,513.161,867.183,507.824z"/>
<path style="fill:#A51F1E;" d="M969.089,635.474c0.474,0.75,1.269,1.27,2.478,1.152c25.398-2.459,50.241-8.607,73.787-18.456
	c3.648-1.526,2.046-7.563-1.658-6.014c-23,9.62-47.308,15.831-72.129,18.234c-1.829,0.177-2.783,1.607-2.927,3.053
	C968.565,634.181,968.719,634.89,969.089,635.474z"/>
<path style="fill:#A51F1E;" d="M807.601,466.407c4.362,30.385,11.071,60.612,21.011,89.677c5.2,15.203,11.354,30.118,19.034,44.245
	l0.793,0.942c0.858,0.69,1.938,0.698,2.892,0.302c1.579-0.657,2.76-2.444,1.7-4.392c-17.946-33.007-28.097-70.248-35.142-106.962
	c-5.019-26.151-9.105-53.499-8.769-80.402c-2.094,0.349-4.155,0.606-6.206,0.833C802.841,429.297,804.969,448.066,807.601,466.407z"
	/>
<path style="fill:#26385F;" d="M764.357,404.926c1.674,0.891,3.429,1.618,5.198,2.312c9.904,3.888,21.232,4.75,33.359,3.411
	c2.051-0.226,4.112-0.483,6.206-0.833c69.662-11.617,161.064-88.961,161.064-88.961c-3.043,56.991,29.197,78.381,59.424,86.04
	c-0.319-1.793,0.868-3.314,2.313-3.816l-0.473-0.972c-23.403-49.104-36.188-91.858-28.557-95.495
	c4.368-2.082,14.49,9.145,26.729,28.305c-12.128-31.15-17.325-54.28-11.807-56.91c5.801-2.764,21.732,17.9,39.319,49.526
	c-8.539-22.147-13.484-40.063-13.435-49.16c-55.019-43.315-170.71,13.611-170.71,13.611
	c-129.148-237.775-108.629,16.135-108.629,16.135c-48.611-51.105-61.088,6.19-38.441,54.064
	C734.128,379.541,746.958,395.662,764.357,404.926z"/>
<path style="fill:#EB806E;" d="M1057.131,327.532c-17.587-31.626-33.518-52.29-39.319-49.526c-5.518,2.63-0.321,25.76,11.807,56.91
	c-12.239-19.16-22.361-30.386-26.729-28.305c-7.631,3.637,5.155,46.391,28.557,95.495l0.473,0.972
	c1.217-0.425,2.563-0.145,3.23,1.42c16.403,38.519,35.644,80.378,75.53,99.394c2.031,0.968,1.892,3.053,0.776,4.422
	c4.067,1.783,8.007,2.783,11.762,3.04l214.987,26.367c7.401,1.199,9.78,10.665,3.8,15.187c-18.19,13.754-34.24,25.491-49.533,36.532
	c12.845,11.063,28.798,28.647,44.459,49.805c7.12,9.62,13.504,19.077,19.017,28.005c16.564,0.515,32.924,3.114,48.04,8.261
	c21.49-15.301,35.597-24.126,64.996-46.363c25.01-18.915,46.991-38.419,55.167-70.409c4.663-18.24,4.229-36.741-0.365-53.958
	c-3.203-12.001-8.486-22.996-15.331-32.776c-14.429-20.614-35.942-35.695-60.527-42.592c-8.241-2.312-16.82-3.717-25.589-4.096
	l-65.388-2.396l-160.338-5.875l-42.192-1.546c-5.019-13.457-11.459-28.663-19.038-44.565c-0.592-1.241-1.187-2.437-1.781-3.662
	c-22.885-47.242-46.971-82.209-54.409-78.664c-3.266,1.557-2.767,10.317,0.677,23.637c-9.261-15.786-17.756-27.933-24.215-34.627
	c-4.286-4.442-7.695-6.54-9.772-5.55c-1.477,0.704-2.17,2.906-2.189,6.303C1043.647,287.47,1048.592,305.386,1057.131,327.532z"/>
<path style="fill:#A51F1E;" d="M1107.533,509.279l1.263,0.319c1.091,0.056,2.024-0.499,2.661-1.281
	c1.116-1.369,1.255-3.454-0.776-4.422c-39.886-19.016-59.127-60.875-75.53-99.394c-0.667-1.565-2.013-1.845-3.23-1.42
	c-1.444,0.502-2.632,2.023-2.313,3.816l0.158,0.752C1046.582,447.139,1066.678,489.802,1107.533,509.279z"/>
<path style="fill:#F39200;" d="M1149.785,1792.334c0.281-1.142-0.083-2.349-1.519-2.986c-31.181-13.822-57.222-37.892-72.818-68.304
	c-16.622-32.412-18.623-68.988-16.092-104.693c0.124-1.742-1-2.677-2.318-2.901c-1.234-0.209-2.605,0.234-3.358,1.35
	c-0.29,0.431-0.516,0.924-0.56,1.551c-2.613,36.864-0.198,74.418,16.943,107.84c16.024,31.244,43.009,56.337,75.057,70.542
	l0.093,0.021C1147.386,1795.647,1149.355,1794.08,1149.785,1792.334z"/>
<path style="fill:#F39200;" d="M1064.323,1389.442c1.551-0.014,3.155-1.011,3.28-2.995c2.863-45.467,5.726-90.934,8.59-136.4
	c0.413-6.567,0.827-13.134,1.24-19.701c0.252-4.008-5.985-3.993-6.236,0c-2.863,45.467-5.726,90.934-8.59,136.401
	c-0.413,6.567-0.827,13.133-1.24,19.7c-0.048,0.768,0.189,1.341,0.53,1.814C1062.449,1389.029,1063.351,1389.451,1064.323,1389.442z
	"/>
<path style="fill:#DFEBE9;" d="M1309.761,670.862c-63.842,11.864-119.662,45.613-171.56,81.081
	c-51.897,35.468-102.516,73.82-162.17,97.366c-59.654,23.547-131.48,30.408-189.135,2.113c-10.234-5.022-19.722-11.048-28.89-17.513
	c-18.357-12.945-35.321-27.789-53.657-40.845c-27.493-19.576-61.4-35.701-95.788-31.191c-24.152,3.167-45.967,16.186-68.843,23.115
	c-9.795,2.966-19.781,4.837-30.232,4.306c-45.58-2.313-72.584-46.411-90.696-84.536c-14.568,41.938,9.401,112.402,52.584,133.064
	c38.786,18.557,88.535,14.604,123.262,38.929c27.203,19.054,39.461,51.858,66.933,70.59c28.885,19.696,68.379,19.734,103.855,14.626
	c35.477-5.107,70.982-14.505,106.741-10.604c5.321,0.581,10.527,1.518,15.682,2.616c48.441,10.321,90.189,41.444,137.968,56.182
	c92.42,28.507,195.236-8.979,268.199-66.746c13.638-10.797,26.864-22.442,40.487-33.505c22.912-18.606,46.953-35.563,75.99-44.057
	c44.296-12.957,93.097-3.921,138.861-11.856c53.33-9.248,100.546-42.907,122.946-87.648
	c-42.087,44.546-128.278,45.681-172.711,2.272c-22.234-21.72-33.89-51.221-57.472-71.739c-11.039-9.604-24.046-16.575-38.125-21.37
	c-15.117-5.148-31.476-7.747-48.04-8.261C1340.427,666.769,1324.741,668.079,1309.761,670.862z"/>
</svg>
